<svg version="1" xmlns="http://www.w3.org/2000/svg" width="540" height="540" viewBox="0 0 405.000000 405.000000"><path d="M0 142.1v142.2l5.2-.7c2.9-.4 6.9-.9 8.8-1.3l3.4-.6-5.3 6.9-5.4 6.9 5.4-5.3c7.3-7.3 8.4-6.8 8.5 3.9 0 8.2.2 8.8 3.4 12.8 2.3 2.8 5.6 5.2 9.8 7.2 7.4 3.4 7.2 3.3 7.2 1.4 0-.8.7-1.5 1.6-1.5.9 0 2.8-1.2 4.1-2.6 1.5-1.7 3.6-2.7 5.6-2.8 2.1-.1 3.2-.7 3.1-1.7-.1-.8 1.4-2.6 3.2-3.9 1.8-1.4 3.4-3.1 3.4-3.8 0-.7.3-1.1.8-.8 1.2.7 3.8-1.7 4.6-4.2.4-1.3 1.5-2.2 2.7-2.2 1.6 0 1.9-.4 1.4-2.1-.5-1.5-.2-2.2 1.4-2.6 1.2-.3 2.1-1.2 2.1-2.1 0-2.5 1.5-.2 3 4.5 1.2 3.9 3 5.8 3 3.3 0-.6.5-1 1.1-1 .6 0 .8.9.4 2.1-.5 1.4-.1 2.5 1.2 3.5 1.7 1.3 1.7 1.4-.2.7-1.5-.5-1.4-.1.7 1.5 1.4 1.2 3.7 2.2 5 2.2 1.2 0 5.2 1.4 8.8 3.2 6.7 3.2 7.2 3.3 12.8 3.6 2.4.2 3.5.8 3.9 2.2.4 1.5 1.1 1.8 3.3 1.4 1.7-.4 3.1-.1 3.5.6.6 1 .1 1.1-1.9.6-1.8-.4-2.5-.3-2.1.4.3.5 1.5 1 2.5 1 4.9 0 5.1 1.4.4 2.6-2.7.7-5.7.8-6.9.4-3.2-1.2-37.7-1-39.2.2-.9.7-2.2.6-4.5-.3-1.9-.8-6.6-1.4-10.8-1.4-8.4 0-13.3 2-18.5 7.4-2.8 3-2.9 3.5-3 12.9 0 7.5.4 10.4 1.8 13 1.6 2.9 1.6 3.4.2 4.8-.8.8-1.8 2.6-2.1 4-1.1 4.4.1 13.9 2.3 18.1 1.2 2.3 1.9 4.4 1.5 4.8-.4.4-.2.5.3.4 2.1-.6 5.5 1.3 5.5 3.1 0 1.2 1 2 3.5 2.4 4.1.8 4.7 2.6.8 2.6-1.7 0-3.6 1-5 2.7-1.7 1.9-2.6 2.4-3.4 1.6-1.2-1.2-4.7-.2-7.7 2-1.9 1.5-.6 2 1.7.7 2-1 2.1-.9 1.5 1.7-.4 1.5-.7 3-.6 3.3 0 2.9.5 3 27.3 3h27l3.3-2.5c2.2-1.7 4-2.3 5.1-1.9 1.5.6 1.7.3 1.3-1.4-.4-1.6 0-2.2 1.9-2.7 1.4-.3 3-1 3.6-1.5 6.3-5.1 7.8-6.1 8.6-5.6.5.4 1.2-.2 1.6-1.2.8-2.8 7-3.2 45-3.1 41.5.1 48.5.5 50.3 3 1.7 2.5 6.5 4.9 9.5 4.9 1.7 0 2.7.7 3.1 2.2.8 3.3.7 3.8-.6 3.5-.7-.1-1.3.5-1.3 1.3 0 1 1.2 1.6 3.5 1.8 1.9.2 4.3 1.1 5.2 1.9 1 .9 1.8 1.1 1.8.6 0-.6-.7-1.3-1.5-1.6-2.6-1-4.1-5.6-12.5-36.7-.5-1.9-1-8.1-1-13.7 0-10.1 0-10.3 2.5-10.9 4-1 5.5-4.1 5.5-11.1 0-12.4-1.9-13.4-24.3-13.3-7.8.1-16.6.1-19.6 0h-5.3l.4-7.5c.2-4.1.8-7.9 1.4-8.5.7-.7 3.1.2 7.6 3 6 3.6 6.9 3.9 9.7 2.9 1.7-.6 3.1-1.5 3.1-1.9 0-.5 2.2-2.3 5-4.1 2.7-1.7 4.7-3.5 4.5-3.9-.3-.4.6-2.3 1.8-4.1 1.8-2.5 3-3.3 4.8-3.1 2.9.3 3.1-.5 9.4-25.3 1.9-7.7 4.4-17.2 5.6-21 1.1-3.9 2.2-7.7 2.3-8.5.9-4.9 2.9-10.1 4.7-12.4 2.6-3.3 8.3-3.7 9.9-.6 1.3 2.5 1.6 15 .4 15.8-.5.4-1 3.6-1.1 7.1-.3 5.3-.1 6.2 1.1 5.2 1.1-.9 1.8-.4 3.7 2.6 1.3 2.1 2.6 4.9 2.9 6.3.5 2 1.1 2.4 3.3 2.2 1.8-.2 2.7.2 2.7 1.2 0 .9 1 1.4 2.8 1.4 1.5 0 5.4 1.6 8.7 3.6 4.1 2.5 6.8 3.6 8.5 3.2 1.3-.2 3.7.2 5.1 1 3.1 1.6 9.8 8.9 11.9 13 .8 1.6 3.3 5.4 5.5 8.4s5 7.1 6.2 9.1c1.2 1.9 3.4 4.2 4.9 5 1.5.7 4.5 3 6.7 5l4 3.7-4.4.7c-2.4.4-5.9 1.3-7.6 2.1-2.7 1.1-3.9 1.1-6.5 0-2.6-1-11.2-1.3-37.8-1.1-19 .1-35.2.6-36.1.9-3.5 1.5-3.9 5.2-3.9 34.1 0 28 0 28.5 2.2 30.5 2 1.9 3.4 2 21.1 2 10.5 0 19.6-.4 20.7-1 1.3-.7 2.9-.5 5.4.5 7.6 3.2 22.4 1.1 26.4-3.8 1.2-1.4 1.8-1.2 6.1 1.4 3 1.9 7.2 3.4 11.3 4 5.6.9 7.3.7 12.4-1 3.2-1.1 6.2-1.7 6.6-1.5.5.3-.6 2.1-2.4 4-2.6 2.8-3.9 3.4-6.1 3.1-2.5-.3-2.8-.1-2.3 1.9.5 1.7.1 2.3-1.9 2.8-2.1.5-2.4 1-1.9 3.3.5 2 .2 3-1.7 4.4-2.4 1.8-2.3 1.9 6.4 1.9 5.7 0 8.7-.4 8.7-1.1 0-.6.7-.8 1.5-.5.8.3 2.2.9 3 1.2.8.3 1.5.1 1.5-.6 0-1.4 2.5-4 3.9-4 .6 0 1-.3 1-.7-.4-2.6.2-3.5 1.4-2.4 1.1.8 1.8.6 3.2-.9 1-1.1 2.9-2 4.2-2 1.4 0 2.1-.4 1.8-1-.4-.6 1.1-1 3.8-1 3.1 0 4.7-.5 5.1-1.5.7-1.8 4.2-2 4.9-.3.4 1 .8 1 1.6-.1.7-1.1 2.6-1.4 6.3-1.2 2.9.1 6.5.2 8.1.3 2 .1 4.2 1.7 8.2 6l5.5 5.9V0H0v142.1zM338.1 37c4.6 3.8 9.7 9.1 11.3 11.7 2.9 4.6 3.1 5.3 3.1 15.1 0 8.8.3 10.5 1.8 11.3.9.6 1.7 1.7 1.7 2.5s.7 1.7 1.5 2c.8.4 1.5 1.1 1.5 1.7 0 .6.6 1.8 1.3 2.6.7.9 2.1 3.4 3 5.6.9 2.2 3.7 8.9 6.2 14.9s4.3 11.1 4.1 11.4c-.3.2-1.9-.1-3.6-.8-2.1-.9-6-1.1-12.3-.7-10.1.6-19.7 3.3-32.5 9.3-4.2 2-10.6 4.7-14.2 6-3.6 1.3-10.4 4.2-15 6.5-10 4.9-18.7 6.8-23.1 5.2-1.7-.7-2.9-.7-2.9-.2 0 .5.8 1.2 1.8 1.6.9.3 3.5 1.4 5.8 2.4 3.5 1.5 4.7 1.6 8 .7 2.1-.6 4.6-1.1 5.5-.9.9.1 5.9-1.7 11-3.9 12.6-5.5 14.4-6 19.8-5.3 6 .7 9.4 2.9 8.8 5.4-.3 1.2.4 2.6 2 3.9 1.4 1.1 2.3 2.6 2 3.3-.3.8.7 2.4 2.1 3.6 2.5 2 2.7 2.7 2.4 8.1-.3 4.5-.8 6-1.9 6-2.4 0-.9 2.4 2.3 3.5 5.4 1.9 5.9 2.7 2.5 4.1-2.1.9-2.9 1.8-2.5 2.8.5 1.2 0 1.6-2 1.6-1.9 0-2.7.6-3.2 2.6-.4 1.7-.2 2.9.7 3.5 1 .7.6.8-1.2.4-2.3-.6-2.6-.3-2.6 1.9 0 2.3.5 2.6 7.1 4.1 3.9.8 8 1.4 9.1 1.4 1.1-.1 3.4.4 5 1 2.6 1.1 2.8 1.4 1.4 2.4-.8.7-1.8 2-2.2 2.9-.8 2.3-2.3 2.3-3 0-.5-2-4.4-3.2-10.7-3.2-2.1 0-5.9-.9-8.5-2-2.8-1.2-5.7-1.8-7.3-1.4-1.9.4-2.3.3-1.4-.4 1.1-.7 1-1-.3-1.6-.9-.3-2.1-.4-2.6 0-.5.3-.9 0-.9-.6 0-.7-1.2-.9-3.4-.5-2.2.5-3.6.3-4.1-.5-.6-.9-1-.9-1.6.1-1.4 2.3-1 3 1.5 2.3 1.3-.3 2.7-.1 3 .5.4.6.1 1.1-.7 1.1-.7 0-1.9 1.1-2.7 2.4-1.1 2.1-1 2.8.8 5.4 1.2 1.6 2.1 3.7 2.2 4.8.1 4.9.5 6.1 1.7 5.7 1.2-.5 1.5.2 1.2 2.3 0 .4.4 1 1 1.3 1.8 1.2-.6 7.6-3.3 8.9-1.5.7-2.7.7-3.3.1-.6-.6-1.4-.5-2.2.5-1 1.1-.8 1.7 1.1 3 1.2.9 1.7 1.6 1.1 1.6-.6 0-3.9 2.1-7.3 4.6l-6.1 4.7 2.5 2.6c1.4 1.5 2.6 3.3 2.6 3.9 0 .7 4.6 5.8 10.3 11.5 8.1 8.2 11.8 11.1 18.1 14.2 7 3.5 7.6 4 5.6 4.9-1.3.6-2.4.6-2.8 0-.7-.9-2-1.6-12.4-7.1-2.7-1.4-4.8-2.8-4.8-3.2 0-1.2-5-3.2-10-4.1-9.5-1.8-11.5-2.6-11.4-4.4.2-1.2-.4-1.6-2-1.4-1.6.2-2.1-.2-2.1-1.9 0-1.3-.9-2.9-2-3.7-1.2-.9-1.5-1.6-.7-1.7.6-.1 1.7-.3 2.2-.4.6-.1 1.3-.3 1.8-.4.8-.2-1.9-2.1-3.1-2.1-.5 0-.6.4-.3.9s-.1 1.2-1 1.5c-3 1.2-3.6.6-2-1.9 2-3 2.1-6.1.2-6.8-.7-.3-1.6-1.9-1.9-3.6-.4-2.1-1.5-3.5-3.1-4.1-1.8-.7-2.3-1.4-1.9-2.9.3-1.2.1-2.1-.6-2.1-.6 0-1.1.8-1.1 1.7 0 1.3-.2 1.5-.8.5-.5-.7-1.6-1-2.5-.6-3.1 1.1-8.7-.6-12.2-3.9-4-3.6-4.3-4.7-1.5-4.7 1.1 0 2-.5 2-1 0-1.6 2.2-1.2 3.6.7 1 1.4 1.5 1.5 2.5.6 1.4-1.4 3.9-.6 3.9 1.3 0 .8.7 1.4 1.5 1.4 1.2 0 1.4-.7 1-2.8-.4-1.5-.8-3.6-1-4.8-.6-2.7-4-10-7-14.9-3.7-6.1-5.5-10.4-5.5-13.5 0-1.5-.7-4.4-1.5-6.3-3.5-8.5-1.3-9.6 8.7-4.3 3.5 1.8 8.7 4.6 11.6 6.1 2.9 1.5 5.7 3.6 6.3 4.7.8 1.5 1.4 1.7 2.4.8.8-.7 1.5-.7 1.9-.1.4.5.2 1.2-.4 1.6-1.2.7-.4 2.5 1.1 2.5.6 0 .9-1.5.7-3.3-.2-2-.8-3.2-1.8-3.2-1.9 0-3.9-2.5-3.3-4.2.4-.9 0-1.1-1-.7-1.2.4-1.8-.2-2.3-2-.4-1.7-1.3-2.6-2.8-2.7-1.1 0-1.5-.3-.8-.6.6-.2 1.2-1 1.2-1.6 0-2.4-4.7-4.2-11.9-4.7-6.9-.5-7.3-.6-5.9-2.1.9-.9 2.4-3.4 3.3-5.5.9-2.1 2.5-4.8 3.6-6 1.9-2 1.9-2.1 0-7.6-1.2-3.4-1.6-6.1-1-6.9.4-.8.6-2.3.3-3.4-.4-1.9 2-5.5 10.4-15 13.9-15.7 15.3-17.5 13.8-17.5-2.5 0-1.9-2.6 1.5-6 3.6-3.6 3.3-5-.5-2.5-1.4 1-2.6 1.3-2.6.9 0-1-5.7-1.1-8-.2-.8.4-5.4 1.2-10.2 1.8-8.1 1-8.9.9-12.4-1.1-2.1-1.2-5.9-4-8.5-6.3-2.6-2.2-6.1-4.9-7.9-6-3.2-1.8-3.2-1.8-2.5.3.3 1.1.3 2.1-.2 2.1-.4.1-2.7.5-5 .9-4 .8-4.2.7-5.4-2-1.6-4.1-.4-7.7 4.5-12.3 4-3.9 23.8-15.1 37.1-21.1 3.3-1.5 12.6-5.8 20.6-9.6 12.8-6.1 29-11.5 35.1-11.8.9-.1 5.4 3 9.9 6.9zM137 49.2c5.1.8 12.7 2.6 18 4.3 1.1.4 4.8 1.9 9.5 4 5 2.3 7.7 4.7 10.8 9.7 1.6 2.5 1.6 2.7.1 2.1-1.2-.4-1.5-.2-1.2.8.2.8 2.1 1.8 4.1 2.3 2 .5 3.7 1.3 3.7 1.7 0 2.3-14.8 5.8-24.5 5.8-2.7 0-2.8-.1-1.2-1.3.9-.7 1.7-1.7 1.7-2.2 0-1.4 5.8-3.7 7.6-3 1.8.7 6.4-.3 6.4-1.4 0-.4-1.4-.7-3.1-.8-1.7 0-3.6-.5-4.3-1.1-.9-.8-2.4-.5-5.4.9-2.3 1.1-5.6 2-7.4 2-2.1 0-4.8 1.2-7.2 3-3.9 3-7.9 3.9-9.1 2-.3-.5 1.2-2.1 3.5-3.6 2.2-1.5 4-2.8 4-3.1 0-.7-4.3 1.9-9.9 5.8-5 3.6-10.1 5.3-8.6 2.9 1.2-1.9-1.4-1-4.5 1.7-2.8 2.3-4.2 2.7-10.6 2.9-4.1.1-7.7-.2-8-.8-.3-.5-1.5 0-2.5 1.1-1.1 1.2-3.1 2.1-4.4 2.1-1.3 0-2.7.5-3 1-.4.6-1 .8-1.5.5-.5-.3-1.1-.1-1.5.5-.3.5-.1 1 .6 1 1 0 1 .3.1 1.2-.7.7-1.2 2.1-1.3 3.2 0 2-.1 2-.9-.2-.5-1.2-1.2-2.2-1.5-2.2-.3 0-2.1 1.6-4.1 3.5-3.6 3.6-7.1 4.8-6 2 .3-.8.3-1.5 0-1.5-.5 0-5.6 3.1-6.4 4-.3.3-1.3 1.1-2.3 1.9-1.7 1.3-1.8 1.2-1.1-1.5l.7-2.9-4.1 3.9c-3.6 3.4-4.6 3.8-9.1 3.8-3.1 0-5.5.6-6.2 1.4-.6.8-.8 1.4-.3 1.4s.2.5-.6 1-3.6 1-6.1 1c-4.2 0-5 .4-9.2 5-4.1 4.4-6.7 6.2-6.7 4.4 0-.3 2.1-3.7 4.6-7.4 6-9 15.6-16.6 30-23.7 10.2-5 12.3-6.5 9.3-6.9-.5-.1-1.1-.2-1.3-.3-.8-.2 2.4-7.2 4.7-10.2 1.1-1.6 3-2.9 4.1-3 2 0 2-.1.2-.8C71.5 65.5 89 54 95.6 54c.8 0 2.5-.5 3.7-1.2 7.5-4.2 24.5-5.8 37.7-3.6zm220 19.9c0 1.4-1.7 1-2.3-.5-.4-1-.1-1.3.9-.9.7.3 1.4.9 1.4 1.4zm-203.6 8.3c-.8 2-3.5 1.8-4.2-.3-.3-1 0-1.2 1.1-.8.9.3 1.9.2 2.3-.4.9-1.6 1.5-.4.8 1.5zm48.4 9.2c2.5 1.7 2.9 3.4.7 3.4-.8 0-1.5-.4-1.5-.9s-.9-1.1-2.1-1.4c-1.2-.3-1.8-1-1.4-1.6.8-1.5 1.7-1.4 4.3.5zM207 92c0 1.3-1.1 1.3-3 0-1.2-.8-1.1-1 .8-1 1.2 0 2.2.4 2.2 1zm84 5.4c0 .3-.4.8-1 1.1-.5.3-1 .1-1-.4 0-.6.5-1.1 1-1.1.6 0 1 .2 1 .4zm-3.4 8.2c-.5 1.4-.9 1.5-1.9.5-.9-.9-.9-1.4.3-2.1 1.8-1.1 2.4-.6 1.6 1.6zM166.5 113c.4.6-.5 1-2 1s-2.4-.4-2-1c.3-.6 1.2-1 2-1s1.7.4 2 1zm6.7 7.3c2 2.3 4.9 7.1 6.4 10.7 1.6 3.6 4.3 9.1 6.1 12.3 1.8 3.3 3.3 6.3 3.3 6.7 0 1.1-2.6 2-5.6 2-1.4 0-3.7.6-5.3 1.4-1.5.8-6.5 1.7-11.2 2-4.6.4-10.2 1.1-12.4 1.6-5.7 1.4-14.1 1.2-15.3-.3-.5-.6-1.2-2.1-1.4-3.2-.2-1.5-1.2-2-3.4-2.1-1.6 0-3.5-.4-4.2-.8-.6-.4-2-.3-2.9.2-1 .5-3.5 1.3-5.7 1.6-3.9.8-11.6 5-11.6 6.4 0 1-9.8 3.7-12.5 3.3-1.1-.1-3 .7-4.2 1.9-1.2 1.1-2.7 2-3.3 2-1.2 0-4.7 1.9-7.2 3.9-1 .7-2.4 1.1-3.3.7-1.5-.5-2.8.5-6.5 5.4-2.2 3-3.3 2.2-3.3-2.2.1-1.8-.2-2.6-.4-1.8-.3.8-1.1 2.2-1.8 3-1.6 2.1-4 10.1-3.7 12.3.2 1.1-.1 1.6-.6 1.3-.6-.3-.8.2-.6 1.1.8 3.2-3.7 4.3-9.3 2.3-8.9-3.2-8.3-2.3-8.3-11.5 0-7.4.2-8.3 2-8.8 1.3-.3 2-1.4 2-3 0-1.3.9-3.6 2-5s2-3.3 2-4.4c0-2.3 4.4-11.8 5.9-12.7.6-.4 1.1-1.6 1.1-2.7 0-4.2 6.3-11.9 9.7-11.9 1.3 0 2.3-.4 2.3-.9s.8-.7 1.9-.4c1 .3 2.2 0 2.5-.6.9-1.3 9.6-1.4 15.1-.1 2.5.6 4.4.5 4.9 0 1.8-1.8 4.6-1.1 4.6 1 0 1.5 1.5 2.4 6.8 4.1 7.7 2.6 28.3 3.8 34.5 2.1 2.2-.6 3.7-.7 3.7-.1 0 2 1.7.5 5.6-4.9 2.2-3.1 5.3-8 6.9-10.7 1.5-2.8 3.3-5.3 3.9-5.8 2.4-1.7 7.1.4 10.8 4.6zM149 132c-.6 1.1-2.1 2-3.3 1.9-1.2 0-3.5.3-5.2.6l-3 .6 3-2.5c1.9-1.6 4.2-2.6 6.3-2.6 3 0 3.2.2 2.2 2zm211 43.4c0 2.6-1.5 4.3-2.4 2.8-.7-1.2.4-5.2 1.5-5.2.5 0 .9 1.1.9 2.4zm-197.6 24.2c1.7.6 2.3 5.4.7 5.4-.5 0-1.5.2-2.3.5-2.5.9-4-.9-2.9-3.8 1.1-2.8 1.8-3.1 4.5-2.1zm-14.6 8.2c.5 1.5-3.7 1.6-5.8.2-1.3-.9-1.3-1.1-.1-1.9 1.6-1.1 5.3 0 5.9 1.7zm173.7 20.5c1.1.2 0 .5-2.4.6-3.8.1-4.2-.1-3.1-1.4.8-1 1.7-1.2 2.4-.6.6.5 2 1.1 3.1 1.4zm-185 13.8c1.6.8 3.8 2.2 4.7 3.1 1 1 2.9 1.8 4.3 1.8 2.8 0 3.2 1.2 1.1 3-.8.6-1.6 2.4-1.8 3.8-.2 1.5-.9 2.6-1.5 2.4-.7-.1-1.3.5-1.3 1.3 0 1.2-1.3 1.5-6 1.5-5.7 0-6.2-.2-7.8-3-.9-1.6-2.2-3-2.7-3-.6 0-1.6-.9-2.3-2.1-1.8-2.8-.6-10.3 1.4-9.5.8.3 1.4.2 1.4-.2 0-1.2 7.3-.6 10.5.9zm141.5 6.8c0 .5-.6 1.1-1.3 1.4-.8.3-1.4-.1-1.4-.9s.6-1.4 1.4-1.4c.7 0 1.3.4 1.3.9zm33.5 24.1c.4.6-.5 1-1.9 1s-2.6-.5-2.6-1c0-.6.9-1 1.9-1 1.1 0 2.3.4 2.6 1zM66.1 324c5.4 1.5 7.9 4.8 8.6 11.4l.6 5.6H61v-4.1c0-3.3-.3-4-1.7-3.7-1 .2-1.9 1.1-2.1 2.1-.8 3.9.8 6.3 6.3 9.6 7.6 4.6 11.2 9 12 14.6 1 6.5-.2 13.3-3 16.1-4.6 4.6-15.5 5.5-22.5 1.9-4-2.1-6-6.3-6-13V359h12.9l.3 5.2c.3 4.5.6 5.3 2.3 5.3 1.7 0 2-.7 2-4.4 0-4.2-.3-4.7-4.5-7.8-10.3-7.6-11.9-9.3-13.1-13.6-1.3-4.9-.5-12.1 1.7-15.5 3-4.6 12.2-6.5 20.5-4.2zm266.2.4c5 2.1 7 5 7.5 11.1l.4 5.5h-12.9l-.7-4.1c-.5-3.1-1-4-2.4-3.7-1.1.2-1.8 1.4-2 3.4-.3 3.4.5 4.2 10.6 11.3 6.6 4.6 7.5 6.3 7.9 15.1.5 9.2-.7 11.7-6.7 14.8-3.6 1.9-5.6 2.3-10.2 1.9-10.2-.9-14.8-5.7-14.8-15.6V359h12.7l.5 5c.6 5.7 1 6.5 3.3 5.7 1-.4 1.5-1.9 1.5-4.5 0-4.2-1.9-6.5-10.2-12.1-2.7-1.8-5.6-4.6-6.5-6.4-1.9-3.7-2.2-14.2-.4-17.5 2.8-5.3 15-7.9 22.4-4.8zm-240.9 2.8c.3 1.8.9 8.7 1.3 15.3.8 13.5 1.2 12.6 3.5-7l1.3-11 7.7-.3 7.6-.3.7 9.8c.4 5.4 1 12.5 1.4 15.8.7 6 .7 5.9 1.9-6 .7-6.6 1.5-13.7 1.9-15.8l.6-3.7h6.8c6 0 6.9.2 6.9 1.8 0 2.1-4.7 44-5.6 49.5l-.6 3.7H118c-10.2 0-9.2 1.2-11.1-13.7-.7-5.1-1.6-9.3-2-9.3-.4 0-1.2 4.6-1.9 10.2-.6 5.7-1.3 10.9-1.5 11.5-.6 1.8-17.4 1.8-18 .1-.2-.7-1.6-11.4-3-23.8s-2.8-24.2-3.1-26.3l-.6-3.7h14l.6 3.2zm68.6 2.3v5.5h-10v10h9v11h-9.1l.3 5.7c.3 5.8.3 5.8 3.3 5.5 1.7-.1 4 0 5.3.3 2.1.5 2.3 1 2 5.8l-.3 5.2-12.2.3-12.3.3V324h24v5.5zm28 0v5.5h-9v9.9l4.3.3 4.2.3v10l-4.2.3-4.3.3v10.8l4.8.3 4.7.3.3 5.8.3 5.8-12.3-.3-12.3-.3-.3-27.3-.2-27.2h24v5.5zm33-.1v5.5l-4.2.3-4.3.3-.3 21.7-.2 21.8h-14l-.2-21.8-.3-21.7-4.2-.3-4.3-.3v-4.8c0-2.6.3-5.1.7-5.4.3-.4 7.5-.7 16-.7H221v5.4zm29.2 3.8l.3 9.3 2.5-9 2.5-9 6.8-.3c3.7-.2 6.7.1 6.7.5 0 .5-1.6 5.7-3.5 11.7-1.9 6-3.5 11.7-3.5 12.5 0 .9 1.8 7.7 4 15.1 2.2 7.4 4 13.8 4 14.2 0 .5-3.2.8-7 .8-8.1 0-7.7.5-10.7-12l-1.8-7.5-.3 9.7-.3 9.8H236l-.1-8.8c0-4.8-.2-16.5-.5-26-.3-9.6-.3-18 0-18.8.4-1 2.4-1.4 7.5-1.4h7l.3 9.2zM287 347c0 19.8.2 23 1.5 23s1.5-3.2 1.5-23v-23h15.2l-.4 23.3c-.3 25.2-.6 26.6-6.2 30.3-4.2 2.7-12.6 3-17.9.6-8.3-3.7-8.7-5.1-8.7-31.5V324h15v23zm73-13c0 7.9.3 10 1.4 10 1.8 0 2.9-5.9 2.1-11.4-1.2-7.7-.4-8.6 7.6-8.6h6.9v55.1l-7.2-.3-7.3-.3-.3-11.3c-.2-8.9-.6-11.2-1.7-11.2s-1.5 2.3-1.7 11.2l-.3 11.3h-14l-.3-27.3-.2-27.2h15v10zM43.7 397.4c-.3.7-.1 1.8.5 2.4.6.6.6 1.2 0 1.6-1.2.7-2.6-2.9-1.7-4.4.9-1.5 1.8-1.2 1.2.4z"/><path d="M353 77c0 .5.5 1 1.1 1 .5 0 .7-.5.4-1-.3-.6-.8-1-1.1-1-.2 0-.4.4-.4 1zM300.5 90c-.3.5-.1 1 .4 1 .6 0 1.1-.5 1.1-1 0-.6-.2-1-.4-1-.3 0-.8.4-1.1 1zM301.7 94.9c-2.6 1.5-5.1 3.1-5.5 3.6-1.2 1.3 3.9-.6 5.7-2.1.9-.7 2.5-2 3.6-2.8 3.1-2.4 1.5-1.8-3.8 1.3zM327 144.1c0 .5.5.7 1 .4.6-.3 1-.8 1-1.1 0-.2-.4-.4-1-.4-.5 0-1 .5-1 1.1zM271 154.2c0 2.3 1.1 4.8 2.1 4.8 1.4 0 1.1-2.4-.6-4.6-1.2-1.6-1.4-1.7-1.5-.2zM315.5 181c-.3.5-.1 1 .4 1 .6 0 1.1-.5 1.1-1 0-.6-.2-1-.4-1-.3 0-.8.4-1.1 1zM311.8 216.7c.6.2 1.8.2 2.5 0 .6-.3.1-.5-1.3-.5-1.4 0-1.9.2-1.2.5zM302.8 222.7c.7.3 1.6.2 1.9-.1.4-.3-.2-.6-1.3-.5-1.1 0-1.4.3-.6.6zM294.5 247c.3.5 1.3 1 2.1 1s1.4-.5 1.4-1c0-.6-.9-1-2.1-1-1.1 0-1.7.4-1.4 1zM302.8 255.7c.7.3 1.6.2 1.9-.1.4-.3-.2-.6-1.3-.5-1.1 0-1.4.3-.6.6zM97.5 131c.3.5.8 1 1.1 1 .2 0 .4-.5.4-1 0-.6-.5-1-1.1-1-.5 0-.7.4-.4 1zM4 299.2c-1.1 1.8-2 3.6-2 4 0 1.7 1.1.6 3-3.2 2.5-4.8 1.8-5.3-1-.8zM.6 306.5c-.9 2.6-.7 3.2.5 1.2.6-1 .9-2.1.6-2.3-.2-.3-.7.2-1.1 1.1zM10.7 313.3c-1.4 1.9-2.8 5.1-3.2 7.3-.4 2.1-1.6 5.9-2.7 8.4l-2 4.5 3.8 3.4c5.2 4.5 11.5 9.1 12.6 9.1 1.4 0 .9-4.7-1-7.1-.9-1.3-1.6-3.1-1.6-3.9.1-.8.2-2.3.3-3.3 0-1 1.2-2.2 2.6-2.7 2.5-1 2.5-1 .9-3.6-1.4-2.1-1.5-3-.6-4.5 1-1.5.9-1.9-.2-1.9-1.2 0-2.2-1.9-4-7.3-.8-2.5-2-2.1-4.9 1.6zM274.5 388.1c-3.7 1.1-9.3 5.5-8.2 6.5.4.4 2-.4 3.5-1.7 3.4-3.1 8-5.2 9.5-4.2.7.4.2.9-1.3 1.3-1.4.3-2.5 1.3-2.5 2.2 0 .9-2.7 4.2-6 7.2-3.3 3.1-5.5 5.6-4.9 5.6 1.8 0 10.7-6.3 16.2-11.6 5.1-4.9 5.3-5.1 3-5.7-3-.9-5.6-.7-9.3.4z"/><path d="M264 397.6c0 .8.5 1.2 1 .9.6-.3 1-1 1-1.6 0-.5-.4-.9-1-.9-.5 0-1 .7-1 1.6zM293.6 399.8c-.8 1.4.2 3.9 2 4.6 1.8.7 1.8-1.4.1-3.9-.9-1.1-1.6-1.4-2.1-.7zM33.7 401.7c-.4.3-.7 1.3-.7 2.1 0 1.2.3 1.2 1.5.2.8-.7 1.5-1.6 1.5-2.1 0-1.1-1.4-1.2-2.3-.2zM261.5 402.1c-.4.6-.5 1.2-.2 1.5.2.3.7-.2 1-1.1.7-1.7.1-2-.8-.4z"/></svg>